%FSLAX23Y23*%
%MOIN*%
G70*
G01*
G75*
%ADD10R,0.118X0.059*%
%ADD11R,0.118X0.039*%
%ADD12R,0.059X0.059*%
%ADD13R,0.031X0.035*%
%ADD14C,0.010*%
%ADD15R,0.059X0.059*%
%ADD16C,0.059*%
%ADD17C,0.050*%
%ADD18C,0.039*%
%ADD19C,0.236*%
%ADD20C,0.008*%
%ADD21C,0.000*%
%ADD22C,0.004*%
D14*
X1000Y230D02*
X1255D01*
X1000D02*
Y625D01*
X1005Y630D01*
X1255D01*
Y230D02*
Y630D01*
X445Y840D02*
X510Y740D01*
X380D02*
X445Y840D01*
X380Y740D02*
X510D01*
X580Y829D02*
X593D01*
X587D01*
Y790D01*
X580D01*
X593D01*
X613D02*
Y816D01*
X632D01*
X639Y810D01*
Y790D01*
X652Y777D02*
Y816D01*
X672D01*
X678Y810D01*
Y797D01*
X672Y790D01*
X652D01*
X692Y816D02*
Y797D01*
X698Y790D01*
X718D01*
Y816D01*
X737Y823D02*
Y816D01*
X731D01*
X744D01*
X737D01*
Y797D01*
X744Y790D01*
X783D02*
X764Y810D01*
X783Y829D01*
X829Y790D02*
X803D01*
X829Y816D01*
Y823D01*
X823Y829D01*
X810D01*
X803Y823D01*
X869Y829D02*
X842D01*
Y810D01*
X856Y816D01*
X862D01*
X869Y810D01*
Y797D01*
X862Y790D01*
X849D01*
X842Y797D01*
X882Y829D02*
Y803D01*
X895Y790D01*
X908Y803D01*
Y829D01*
D20*
X270Y375D02*
X370D01*
X270D02*
Y575D01*
X370D01*
Y375D02*
Y575D01*
X589Y150D02*
X656D01*
X569Y225D02*
X589Y240D01*
X569Y165D02*
X589Y150D01*
Y240D02*
X656D01*
X569Y165D02*
Y225D01*
X809Y150D02*
Y240D01*
X734Y150D02*
X809D01*
X734Y240D02*
X809D01*
D21*
X1063Y670D02*
Y820D01*
X1063Y670D02*
Y820D01*
X1063Y670D02*
Y820D01*
X1064Y670D02*
Y820D01*
X1064Y670D02*
Y820D01*
X1064Y670D02*
Y820D01*
X1064Y670D02*
Y820D01*
X1065Y670D02*
Y820D01*
X1065Y670D02*
Y820D01*
X1065Y670D02*
Y820D01*
X1066Y670D02*
Y820D01*
X1066Y670D02*
Y820D01*
X1066Y670D02*
Y820D01*
X1066Y670D02*
Y820D01*
X1067Y670D02*
Y820D01*
X1067Y670D02*
Y820D01*
X1067Y670D02*
Y820D01*
X1068Y670D02*
Y820D01*
X1068Y670D02*
Y820D01*
X1068Y670D02*
Y820D01*
X1069Y670D02*
Y820D01*
X1069Y670D02*
Y820D01*
X1069Y670D02*
Y820D01*
X1069Y670D02*
Y820D01*
X1070Y670D02*
Y820D01*
X1070Y670D02*
Y820D01*
X1070Y670D02*
Y820D01*
X1071Y670D02*
Y820D01*
X1071Y670D02*
Y820D01*
X1071Y670D02*
Y820D01*
X1072Y670D02*
Y820D01*
X1072Y670D02*
Y820D01*
X1072Y670D02*
Y820D01*
X1072Y670D02*
Y820D01*
X1073Y670D02*
Y820D01*
X1073Y670D02*
Y820D01*
X1073Y670D02*
Y820D01*
X1074Y670D02*
Y820D01*
X1074Y670D02*
Y820D01*
X1074Y670D02*
Y820D01*
X1075Y670D02*
Y820D01*
X1075Y670D02*
Y820D01*
X1075Y670D02*
Y820D01*
X1076Y670D02*
Y820D01*
X1076Y670D02*
Y820D01*
X1076Y670D02*
Y743D01*
Y746D02*
Y820D01*
X1076Y670D02*
Y743D01*
Y746D02*
Y820D01*
X1077Y670D02*
Y745D01*
Y747D02*
Y820D01*
X1077Y670D02*
Y745D01*
Y747D02*
Y820D01*
X1077Y670D02*
Y743D01*
Y747D02*
Y820D01*
X1078Y670D02*
Y743D01*
Y747D02*
Y820D01*
X1078Y670D02*
Y742D01*
Y747D02*
Y820D01*
X1078Y670D02*
Y743D01*
Y746D02*
Y820D01*
X1079Y670D02*
Y743D01*
Y746D02*
Y820D01*
X1079Y670D02*
Y742D01*
Y747D02*
Y820D01*
X1079Y670D02*
Y742D01*
Y747D02*
Y820D01*
X1079Y670D02*
Y741D01*
Y747D02*
Y820D01*
X1080Y670D02*
Y741D01*
Y747D02*
Y820D01*
X1080Y670D02*
Y741D01*
Y747D02*
Y820D01*
X1080Y670D02*
Y741D01*
Y747D02*
Y820D01*
X1081Y670D02*
Y743D01*
Y748D02*
Y820D01*
X1081Y670D02*
Y743D01*
Y748D02*
Y820D01*
X1081Y670D02*
Y741D01*
Y747D02*
Y820D01*
X1082Y670D02*
Y741D01*
Y747D02*
Y820D01*
X1082Y670D02*
Y740D01*
Y748D02*
Y820D01*
X1082Y670D02*
Y740D01*
Y747D02*
Y820D01*
X1082Y670D02*
Y740D01*
Y747D02*
Y820D01*
X1083Y670D02*
Y740D01*
Y749D02*
Y820D01*
X1083Y670D02*
Y740D01*
Y749D02*
Y820D01*
X1083Y670D02*
Y739D01*
Y748D02*
Y820D01*
X1084Y670D02*
Y739D01*
Y748D02*
Y820D01*
X1084Y670D02*
Y740D01*
Y748D02*
Y820D01*
X1084Y670D02*
Y740D01*
Y748D02*
Y820D01*
X1084Y670D02*
Y738D01*
Y749D02*
Y820D01*
X1085Y670D02*
Y738D01*
Y749D02*
Y820D01*
X1085Y670D02*
Y740D01*
Y750D02*
Y820D01*
X1085Y670D02*
Y740D01*
Y750D02*
Y820D01*
X1086Y670D02*
Y738D01*
Y750D02*
Y820D01*
X1086Y670D02*
Y738D01*
Y750D02*
Y820D01*
X1086Y670D02*
Y738D01*
Y750D02*
Y820D01*
X1087Y670D02*
Y738D01*
Y750D02*
Y820D01*
X1087Y670D02*
Y738D01*
Y750D02*
Y820D01*
X1087Y670D02*
Y738D01*
Y750D02*
Y820D01*
X1087Y670D02*
Y738D01*
Y750D02*
Y820D01*
X1088Y670D02*
Y738D01*
Y751D02*
Y820D01*
X1088Y670D02*
Y738D01*
Y751D02*
Y820D01*
X1088Y670D02*
Y737D01*
Y750D02*
Y820D01*
X1089Y670D02*
Y737D01*
Y750D02*
Y820D01*
X1089Y670D02*
Y738D01*
Y751D02*
Y820D01*
X1089Y670D02*
Y738D01*
Y751D02*
Y820D01*
X1090Y670D02*
Y737D01*
Y752D02*
Y820D01*
X1090Y670D02*
Y737D01*
Y752D02*
Y820D01*
X1090Y670D02*
Y736D01*
Y752D02*
Y820D01*
X1090Y670D02*
Y736D01*
Y752D02*
Y820D01*
X1091Y670D02*
Y738D01*
Y752D02*
Y820D01*
X1091Y670D02*
Y736D01*
Y751D02*
Y820D01*
X1091Y670D02*
Y736D01*
Y751D02*
Y820D01*
X1092Y670D02*
Y736D01*
Y752D02*
Y820D01*
X1092Y670D02*
Y736D01*
Y752D02*
Y820D01*
X1092Y670D02*
Y735D01*
Y752D02*
Y820D01*
X1093Y670D02*
Y735D01*
Y752D02*
Y820D01*
X1093Y670D02*
Y735D01*
Y752D02*
Y820D01*
X1093Y670D02*
Y735D01*
Y752D02*
Y820D01*
X1094Y670D02*
Y735D01*
Y753D02*
Y820D01*
X1094Y670D02*
Y735D01*
Y753D02*
Y820D01*
X1094Y670D02*
Y734D01*
Y753D02*
Y820D01*
X1094Y670D02*
Y734D01*
Y753D02*
Y820D01*
X1095Y670D02*
Y736D01*
Y754D02*
Y820D01*
X1095Y670D02*
Y736D01*
Y754D02*
Y820D01*
X1095Y670D02*
Y734D01*
Y754D02*
Y820D01*
X1096Y670D02*
Y734D01*
Y754D02*
Y820D01*
X1096Y670D02*
Y734D01*
Y754D02*
Y820D01*
X1096Y670D02*
Y734D01*
Y754D02*
Y820D01*
X1097Y670D02*
Y734D01*
Y754D02*
Y820D01*
X1097Y670D02*
Y734D01*
Y755D02*
Y820D01*
X1097Y670D02*
Y734D01*
Y755D02*
Y820D01*
X1097Y670D02*
Y734D01*
Y754D02*
Y820D01*
X1098Y670D02*
Y734D01*
Y754D02*
Y820D01*
X1098Y670D02*
Y733D01*
Y754D02*
Y820D01*
X1098Y670D02*
Y733D01*
Y754D02*
Y820D01*
X1099Y670D02*
Y734D01*
Y755D02*
Y820D01*
X1099Y670D02*
Y734D01*
Y755D02*
Y820D01*
X1099Y670D02*
Y733D01*
Y756D02*
Y820D01*
X1099Y670D02*
Y734D01*
Y756D02*
Y820D01*
X1100Y670D02*
Y734D01*
Y756D02*
Y820D01*
X1100Y670D02*
Y732D01*
Y756D02*
Y820D01*
X1100Y670D02*
Y732D01*
Y756D02*
Y820D01*
X1101Y670D02*
Y732D01*
Y756D02*
Y820D01*
X1101Y670D02*
Y732D01*
Y756D02*
Y820D01*
X1101Y670D02*
Y732D01*
Y756D02*
Y820D01*
X1102Y670D02*
Y732D01*
Y756D02*
Y820D01*
X1102Y670D02*
Y731D01*
Y756D02*
Y820D01*
X1102Y670D02*
Y731D01*
Y756D02*
Y820D01*
X1102Y670D02*
Y731D01*
Y757D02*
Y820D01*
X1103Y670D02*
Y731D01*
Y757D02*
Y820D01*
X1103Y670D02*
Y731D01*
Y756D02*
Y820D01*
X1103Y670D02*
Y731D01*
Y756D02*
Y820D01*
X1104Y670D02*
Y731D01*
Y758D02*
Y820D01*
X1104Y670D02*
Y730D01*
Y738D02*
Y741D01*
Y757D02*
Y820D01*
X1104Y670D02*
Y730D01*
Y738D02*
Y741D01*
Y757D02*
Y820D01*
X1105Y670D02*
Y730D01*
Y738D02*
Y741D01*
Y758D02*
Y820D01*
X1105Y670D02*
Y730D01*
Y738D02*
Y741D01*
Y758D02*
Y820D01*
X1105Y670D02*
Y730D01*
Y738D02*
Y740D01*
Y758D02*
Y820D01*
X1105Y670D02*
Y730D01*
Y738D02*
Y740D01*
Y758D02*
Y820D01*
X1106Y670D02*
Y730D01*
Y738D02*
Y741D01*
Y758D02*
Y820D01*
X1106Y670D02*
Y730D01*
Y738D02*
Y741D01*
Y758D02*
Y820D01*
X1106Y670D02*
Y730D01*
Y736D02*
Y740D01*
Y759D02*
Y820D01*
X1107Y670D02*
Y730D01*
Y736D02*
Y740D01*
Y759D02*
Y820D01*
X1107Y670D02*
Y730D01*
Y738D02*
Y742D01*
Y756D02*
Y820D01*
X1107Y670D02*
Y730D01*
Y738D02*
Y742D01*
Y756D02*
Y820D01*
X1108Y670D02*
Y729D01*
Y736D02*
Y741D01*
Y759D02*
Y820D01*
X1108Y670D02*
Y729D01*
Y736D02*
Y741D01*
Y759D02*
Y820D01*
X1108Y670D02*
Y730D01*
Y737D02*
Y741D01*
Y759D02*
Y820D01*
X1109Y670D02*
Y729D01*
Y735D02*
Y742D01*
Y759D02*
Y820D01*
X1109Y670D02*
Y729D01*
Y735D02*
Y742D01*
Y759D02*
Y820D01*
X1109Y670D02*
Y730D01*
Y735D02*
Y741D01*
Y759D02*
Y820D01*
X1109Y670D02*
Y730D01*
Y735D02*
Y741D01*
Y759D02*
Y820D01*
X1110Y670D02*
Y730D01*
Y736D02*
Y742D01*
Y760D02*
Y820D01*
X1110Y670D02*
Y730D01*
Y736D02*
Y742D01*
Y760D02*
Y820D01*
X1110Y670D02*
Y728D01*
Y734D02*
Y743D01*
Y760D02*
Y820D01*
X1111Y670D02*
Y728D01*
Y734D02*
Y743D01*
Y760D02*
Y820D01*
X1111Y670D02*
Y729D01*
Y736D02*
Y743D01*
Y760D02*
Y820D01*
X1111Y670D02*
Y729D01*
Y736D02*
Y743D01*
Y760D02*
Y820D01*
X1112Y670D02*
Y727D01*
Y734D02*
Y743D01*
Y760D02*
Y820D01*
X1112Y670D02*
Y727D01*
Y734D02*
Y743D01*
Y760D02*
Y820D01*
X1112Y670D02*
Y727D01*
Y735D02*
Y743D01*
Y761D02*
Y820D01*
X1112Y670D02*
Y727D01*
Y735D02*
Y743D01*
Y761D02*
Y820D01*
X1113Y670D02*
Y727D01*
Y734D02*
Y743D01*
Y761D02*
Y820D01*
X1113Y670D02*
Y726D01*
Y734D02*
Y743D01*
Y760D02*
Y820D01*
X1113Y670D02*
Y726D01*
Y734D02*
Y743D01*
Y760D02*
Y820D01*
X1114Y670D02*
Y727D01*
Y734D02*
Y743D01*
Y761D02*
Y820D01*
X1114Y670D02*
Y727D01*
Y734D02*
Y743D01*
Y761D02*
Y820D01*
X1114Y670D02*
Y726D01*
Y734D02*
Y744D01*
Y762D02*
Y820D01*
X1115Y670D02*
Y726D01*
Y734D02*
Y744D01*
Y762D02*
Y820D01*
X1115Y670D02*
Y726D01*
Y734D02*
Y744D01*
Y762D02*
Y820D01*
X1115Y670D02*
Y726D01*
Y734D02*
Y744D01*
Y762D02*
Y820D01*
X1115Y670D02*
Y725D01*
Y734D02*
Y745D01*
Y761D02*
Y820D01*
X1116Y670D02*
Y725D01*
Y734D02*
Y745D01*
Y761D02*
Y820D01*
X1116Y670D02*
Y725D01*
Y733D02*
Y744D01*
Y762D02*
Y820D01*
X1116Y670D02*
Y725D01*
Y733D02*
Y744D01*
Y762D02*
Y820D01*
X1117Y670D02*
Y725D01*
Y734D02*
Y745D01*
Y761D02*
Y820D01*
X1117Y670D02*
Y725D01*
Y733D02*
Y745D01*
Y763D02*
Y820D01*
X1117Y670D02*
Y725D01*
Y733D02*
Y745D01*
Y763D02*
Y820D01*
X1117Y670D02*
Y725D01*
Y733D02*
Y746D01*
Y763D02*
Y820D01*
X1118Y670D02*
Y725D01*
Y733D02*
Y746D01*
Y763D02*
Y820D01*
X1118Y670D02*
Y725D01*
Y732D02*
Y745D01*
Y763D02*
Y820D01*
X1118Y670D02*
Y725D01*
Y732D02*
Y745D01*
Y763D02*
Y820D01*
X1119Y670D02*
Y725D01*
Y732D02*
Y745D01*
Y763D02*
Y820D01*
X1119Y670D02*
Y725D01*
Y732D02*
Y745D01*
Y763D02*
Y820D01*
X1119Y670D02*
Y725D01*
Y731D02*
Y746D01*
Y763D02*
Y820D01*
X1120Y670D02*
Y725D01*
Y731D02*
Y746D01*
Y763D02*
Y820D01*
X1120Y670D02*
Y723D01*
Y732D02*
Y747D01*
Y764D02*
Y820D01*
X1120Y670D02*
Y723D01*
Y732D02*
Y747D01*
Y764D02*
Y820D01*
X1120Y670D02*
Y725D01*
Y731D02*
Y747D01*
Y765D02*
Y820D01*
X1121Y670D02*
Y725D01*
Y731D02*
Y747D01*
Y765D02*
Y820D01*
X1121Y670D02*
Y723D01*
Y731D02*
Y747D01*
Y765D02*
Y820D01*
X1121Y670D02*
Y723D01*
Y730D02*
Y747D01*
Y765D02*
Y820D01*
X1122Y670D02*
Y723D01*
Y730D02*
Y747D01*
Y765D02*
Y820D01*
X1122Y670D02*
Y722D01*
Y731D02*
Y747D01*
Y765D02*
Y820D01*
X1122Y670D02*
Y722D01*
Y731D02*
Y747D01*
Y765D02*
Y820D01*
X1123Y670D02*
Y724D01*
Y730D02*
Y747D01*
Y765D02*
Y820D01*
X1123Y670D02*
Y724D01*
Y730D02*
Y747D01*
Y765D02*
Y820D01*
X1123Y670D02*
Y722D01*
Y730D02*
Y748D01*
Y764D02*
Y820D01*
X1123Y670D02*
Y722D01*
Y730D02*
Y748D01*
Y764D02*
Y820D01*
X1124Y670D02*
Y722D01*
Y730D02*
Y747D01*
Y765D02*
Y820D01*
X1124Y670D02*
Y722D01*
Y730D02*
Y747D01*
Y765D02*
Y820D01*
X1124Y670D02*
Y722D01*
Y730D02*
Y748D01*
Y766D02*
Y820D01*
X1125Y670D02*
Y722D01*
Y730D02*
Y748D01*
Y766D02*
Y820D01*
X1125Y670D02*
Y721D01*
Y729D02*
Y748D01*
Y765D02*
Y820D01*
X1125Y670D02*
Y721D01*
Y729D02*
Y748D01*
Y765D02*
Y820D01*
X1126Y670D02*
Y722D01*
Y729D02*
Y748D01*
Y766D02*
Y820D01*
X1126Y670D02*
Y721D01*
Y730D02*
Y749D01*
Y767D02*
Y820D01*
X1126Y670D02*
Y721D01*
Y730D02*
Y749D01*
Y767D02*
Y820D01*
X1127Y670D02*
Y721D01*
Y729D02*
Y749D01*
Y767D02*
Y820D01*
X1127Y670D02*
Y721D01*
Y729D02*
Y749D01*
Y767D02*
Y820D01*
X1127Y670D02*
Y721D01*
Y729D02*
Y750D01*
Y765D02*
Y820D01*
X1127Y670D02*
Y721D01*
Y729D02*
Y750D01*
Y765D02*
Y820D01*
X1128Y670D02*
Y721D01*
Y728D02*
Y750D01*
Y767D02*
Y820D01*
X1128Y670D02*
Y721D01*
Y728D02*
Y750D01*
Y767D02*
Y820D01*
X1128Y670D02*
Y720D01*
Y729D02*
Y749D01*
Y768D02*
Y820D01*
X1129Y670D02*
Y720D01*
Y729D02*
Y749D01*
Y768D02*
Y820D01*
X1129Y670D02*
Y720D01*
Y728D02*
Y750D01*
Y767D02*
Y820D01*
X1129Y670D02*
Y720D01*
Y728D02*
Y750D01*
Y767D02*
Y820D01*
X1130Y670D02*
Y720D01*
Y728D02*
Y750D01*
Y768D02*
Y820D01*
X1130Y670D02*
Y720D01*
Y728D02*
Y750D01*
Y768D02*
Y820D01*
X1130Y670D02*
Y719D01*
Y728D02*
Y750D01*
Y767D02*
Y820D01*
X1130Y670D02*
Y720D01*
Y727D02*
Y752D01*
Y768D02*
Y820D01*
X1131Y670D02*
Y720D01*
Y727D02*
Y752D01*
Y768D02*
Y820D01*
X1131Y670D02*
Y719D01*
Y727D02*
Y751D01*
Y769D02*
Y820D01*
X1131Y670D02*
Y719D01*
Y727D02*
Y751D01*
Y769D02*
Y820D01*
X1132Y670D02*
Y720D01*
Y725D02*
Y752D01*
Y768D02*
Y820D01*
X1132Y670D02*
Y720D01*
Y725D02*
Y752D01*
Y768D02*
Y820D01*
X1132Y670D02*
Y718D01*
Y726D02*
Y751D01*
Y769D02*
Y820D01*
X1133Y670D02*
Y718D01*
Y726D02*
Y751D01*
Y769D02*
Y820D01*
X1133Y670D02*
Y718D01*
Y726D02*
Y752D01*
Y769D02*
Y820D01*
X1133Y670D02*
Y718D01*
Y726D02*
Y752D01*
Y769D02*
Y820D01*
X1133Y670D02*
Y718D01*
Y725D02*
Y752D01*
Y769D02*
Y820D01*
X1134Y670D02*
Y718D01*
Y725D02*
Y752D01*
Y769D02*
Y820D01*
X1134Y670D02*
Y717D01*
Y726D02*
Y752D01*
Y769D02*
Y820D01*
X1134Y670D02*
Y718D01*
Y725D02*
Y752D01*
Y770D02*
Y820D01*
X1135Y670D02*
Y718D01*
Y725D02*
Y752D01*
Y770D02*
Y820D01*
X1135Y670D02*
Y717D01*
Y725D02*
Y752D01*
Y771D02*
Y820D01*
X1135Y670D02*
Y717D01*
Y725D02*
Y752D01*
Y771D02*
Y820D01*
X1135Y670D02*
Y718D01*
Y725D02*
Y752D01*
Y771D02*
Y820D01*
X1136Y670D02*
Y718D01*
Y725D02*
Y752D01*
Y771D02*
Y820D01*
X1136Y670D02*
Y716D01*
Y725D02*
Y752D01*
Y771D02*
Y820D01*
X1136Y670D02*
Y716D01*
Y725D02*
Y752D01*
Y771D02*
Y820D01*
X1137Y670D02*
Y716D01*
Y725D02*
Y753D01*
Y770D02*
Y820D01*
X1137Y670D02*
Y716D01*
Y725D02*
Y753D01*
Y770D02*
Y820D01*
X1137Y670D02*
Y716D01*
Y724D02*
Y753D01*
Y770D02*
Y820D01*
X1138Y670D02*
Y716D01*
Y724D02*
Y753D01*
Y770D02*
Y820D01*
X1138Y670D02*
Y716D01*
Y722D02*
Y754D01*
Y772D02*
Y820D01*
X1138Y670D02*
Y716D01*
Y722D02*
Y754D01*
Y772D02*
Y820D01*
X1138Y670D02*
Y716D01*
Y724D02*
Y754D01*
Y771D02*
Y820D01*
X1139Y670D02*
Y716D01*
Y722D02*
Y754D01*
Y772D02*
Y820D01*
X1139Y670D02*
Y716D01*
Y722D02*
Y754D01*
Y772D02*
Y820D01*
X1139Y670D02*
Y716D01*
Y723D02*
Y754D01*
Y772D02*
Y820D01*
X1140Y670D02*
Y716D01*
Y723D02*
Y754D01*
Y772D02*
Y820D01*
X1140Y670D02*
Y715D01*
Y722D02*
Y754D01*
Y772D02*
Y820D01*
X1140Y670D02*
Y715D01*
Y722D02*
Y754D01*
Y772D02*
Y820D01*
X1141Y670D02*
Y714D01*
Y722D02*
Y755D01*
Y773D02*
Y820D01*
X1141Y670D02*
Y714D01*
Y722D02*
Y755D01*
Y773D02*
Y820D01*
X1141Y670D02*
Y716D01*
Y723D02*
Y756D01*
Y773D02*
Y820D01*
X1141Y670D02*
Y716D01*
Y723D02*
Y756D01*
Y773D02*
Y820D01*
X1142Y670D02*
Y714D01*
Y722D02*
Y756D01*
Y774D02*
Y820D01*
X1142Y670D02*
Y714D01*
Y722D02*
Y756D01*
Y774D02*
Y820D01*
X1142Y670D02*
Y715D01*
Y721D02*
Y756D01*
Y773D02*
Y820D01*
X1143Y670D02*
Y715D01*
Y721D02*
Y756D01*
Y773D02*
Y820D01*
X1143Y670D02*
Y714D01*
Y722D02*
Y756D01*
Y774D02*
Y820D01*
X1143Y670D02*
Y715D01*
Y722D02*
Y757D01*
Y774D02*
Y820D01*
X1144Y670D02*
Y715D01*
Y722D02*
Y757D01*
Y774D02*
Y820D01*
X1144Y670D02*
Y713D01*
Y721D02*
Y756D01*
Y773D02*
Y820D01*
X1144Y670D02*
Y713D01*
Y721D02*
Y756D01*
Y773D02*
Y820D01*
X1145Y670D02*
Y713D01*
Y720D02*
Y756D01*
Y774D02*
Y820D01*
X1145Y670D02*
Y713D01*
Y720D02*
Y756D01*
Y774D02*
Y820D01*
X1145Y670D02*
Y713D01*
Y721D02*
Y757D01*
Y774D02*
Y820D01*
X1145Y670D02*
Y713D01*
Y721D02*
Y757D01*
Y774D02*
Y820D01*
X1146Y670D02*
Y713D01*
Y720D02*
Y756D01*
Y774D02*
Y820D01*
X1146Y670D02*
Y713D01*
Y720D02*
Y756D01*
Y774D02*
Y820D01*
X1146Y670D02*
Y713D01*
Y721D02*
Y757D01*
Y774D02*
Y820D01*
X1147Y670D02*
Y713D01*
Y721D02*
Y757D01*
Y774D02*
Y820D01*
X1147Y670D02*
Y712D01*
Y720D02*
Y758D01*
Y775D02*
Y820D01*
X1147Y670D02*
Y712D01*
Y720D02*
Y758D01*
Y776D02*
Y820D01*
X1148Y670D02*
Y712D01*
Y720D02*
Y758D01*
Y776D02*
Y820D01*
X1148Y670D02*
Y712D01*
Y719D02*
Y758D01*
Y776D02*
Y820D01*
X1148Y670D02*
Y712D01*
Y719D02*
Y758D01*
Y776D02*
Y820D01*
X1148Y670D02*
Y711D01*
Y720D02*
Y758D01*
Y776D02*
Y820D01*
X1149Y670D02*
Y711D01*
Y720D02*
Y758D01*
Y776D02*
Y820D01*
X1149Y670D02*
Y712D01*
Y720D02*
Y758D01*
Y776D02*
Y820D01*
X1149Y670D02*
Y712D01*
Y720D02*
Y758D01*
Y776D02*
Y820D01*
X1150Y670D02*
Y711D01*
Y719D02*
Y759D01*
Y776D02*
Y820D01*
X1150Y670D02*
Y711D01*
Y719D02*
Y759D01*
Y776D02*
Y820D01*
X1150Y670D02*
Y711D01*
Y777D02*
Y820D01*
X1151Y670D02*
Y711D01*
Y777D02*
Y820D01*
X1151Y670D02*
Y711D01*
Y777D02*
Y820D01*
X1151Y670D02*
Y711D01*
Y777D02*
Y820D01*
X1151Y670D02*
Y711D01*
Y777D02*
Y820D01*
X1152Y670D02*
Y710D01*
Y777D02*
Y820D01*
X1152Y670D02*
Y710D01*
Y777D02*
Y820D01*
X1152Y670D02*
Y710D01*
Y778D02*
Y820D01*
X1153Y670D02*
Y710D01*
Y778D02*
Y820D01*
X1153Y670D02*
Y709D01*
Y778D02*
Y820D01*
X1153Y670D02*
Y709D01*
Y778D02*
Y820D01*
X1153Y670D02*
Y710D01*
Y777D02*
Y820D01*
X1154Y670D02*
Y710D01*
Y777D02*
Y820D01*
X1154Y670D02*
Y709D01*
Y778D02*
Y820D01*
X1154Y670D02*
Y709D01*
Y778D02*
Y820D01*
X1155Y670D02*
Y710D01*
Y778D02*
Y820D01*
X1155Y670D02*
Y710D01*
Y778D02*
Y820D01*
X1155Y670D02*
Y708D01*
Y779D02*
Y820D01*
X1156Y670D02*
Y708D01*
Y779D02*
Y820D01*
X1156Y670D02*
Y709D01*
Y778D02*
Y820D01*
X1156Y670D02*
Y709D01*
Y779D02*
Y820D01*
X1156Y670D02*
Y709D01*
Y779D02*
Y820D01*
X1157Y670D02*
Y707D01*
Y779D02*
Y820D01*
X1157Y670D02*
Y707D01*
Y779D02*
Y820D01*
X1157Y670D02*
Y709D01*
Y780D02*
Y820D01*
X1158Y670D02*
Y709D01*
Y780D02*
Y820D01*
X1158Y670D02*
Y707D01*
Y780D02*
Y820D01*
X1158Y670D02*
Y707D01*
Y780D02*
Y820D01*
X1159Y670D02*
Y709D01*
Y715D02*
Y763D01*
Y780D02*
Y820D01*
X1159Y670D02*
Y709D01*
Y715D02*
Y763D01*
Y780D02*
Y820D01*
X1159Y670D02*
Y707D01*
Y714D02*
Y763D01*
Y781D02*
Y820D01*
X1160Y670D02*
Y707D01*
Y714D02*
Y763D01*
Y781D02*
Y820D01*
X1160Y670D02*
Y707D01*
Y715D02*
Y764D01*
Y781D02*
Y820D01*
X1160Y670D02*
Y707D01*
Y715D02*
Y764D01*
Y781D02*
Y820D01*
X1160Y670D02*
Y706D01*
Y714D02*
Y763D01*
Y778D02*
Y820D01*
X1161Y670D02*
Y706D01*
Y713D02*
Y763D01*
Y763D02*
Y765D01*
Y781D02*
Y820D01*
X1161Y670D02*
Y706D01*
Y713D02*
Y763D01*
Y763D02*
Y765D01*
Y781D02*
Y820D01*
X1161Y670D02*
Y706D01*
Y714D02*
Y763D01*
Y781D02*
Y820D01*
X1162Y670D02*
Y706D01*
Y714D02*
Y763D01*
Y781D02*
Y820D01*
X1162Y670D02*
Y705D01*
Y713D02*
Y763D01*
Y782D02*
Y820D01*
X1162Y670D02*
Y705D01*
Y713D02*
Y763D01*
Y782D02*
Y820D01*
X1163Y670D02*
Y706D01*
Y714D02*
Y764D01*
Y782D02*
Y820D01*
X1163Y670D02*
Y706D01*
Y714D02*
Y764D01*
Y782D02*
Y820D01*
X1163Y670D02*
Y705D01*
Y713D02*
Y765D01*
Y782D02*
Y820D01*
X1163Y670D02*
Y705D01*
Y713D02*
Y765D01*
Y782D02*
Y820D01*
X1164Y670D02*
Y704D01*
Y713D02*
Y764D01*
Y780D02*
Y820D01*
X1164Y670D02*
Y704D01*
Y713D02*
Y764D01*
Y780D02*
Y820D01*
X1164Y670D02*
Y704D01*
Y713D02*
Y765D01*
Y782D02*
Y820D01*
X1165Y670D02*
Y707D01*
Y712D02*
Y765D01*
Y783D02*
Y820D01*
X1165Y670D02*
Y707D01*
Y712D02*
Y765D01*
Y783D02*
Y820D01*
X1165Y670D02*
Y704D01*
Y712D02*
Y765D01*
Y783D02*
Y820D01*
X1166Y670D02*
Y704D01*
Y712D02*
Y765D01*
Y783D02*
Y820D01*
X1166Y670D02*
Y704D01*
Y711D02*
Y765D01*
Y783D02*
Y820D01*
X1166Y670D02*
Y704D01*
Y711D02*
Y765D01*
Y783D02*
Y820D01*
X1166Y670D02*
Y703D01*
Y712D02*
Y765D01*
Y783D02*
Y820D01*
X1167Y670D02*
Y703D01*
Y712D02*
Y765D01*
Y783D02*
Y820D01*
X1167Y670D02*
Y703D01*
Y711D02*
Y765D01*
Y783D02*
Y820D01*
X1167Y670D02*
Y703D01*
Y711D02*
Y765D01*
Y783D02*
Y820D01*
X1168Y670D02*
Y703D01*
Y712D02*
Y766D01*
Y783D02*
Y820D01*
X1168Y670D02*
Y703D01*
Y712D02*
Y766D01*
Y783D02*
Y820D01*
X1168Y670D02*
Y705D01*
Y711D02*
Y767D01*
Y784D02*
Y820D01*
X1168Y670D02*
Y705D01*
Y711D02*
Y767D01*
Y784D02*
Y820D01*
X1169Y670D02*
Y703D01*
Y711D02*
Y767D01*
Y784D02*
Y820D01*
X1169Y670D02*
Y703D01*
Y710D02*
Y767D01*
Y783D02*
Y820D01*
X1169Y670D02*
Y703D01*
Y710D02*
Y767D01*
Y783D02*
Y820D01*
X1170Y670D02*
Y702D01*
Y711D02*
Y767D01*
Y785D02*
Y820D01*
X1170Y670D02*
Y702D01*
Y711D02*
Y767D01*
Y785D02*
Y820D01*
X1170Y670D02*
Y701D01*
Y710D02*
Y767D01*
Y783D02*
Y820D01*
X1171Y670D02*
Y701D01*
Y710D02*
Y767D01*
Y783D02*
Y820D01*
X1171Y670D02*
Y701D01*
Y709D02*
Y768D01*
Y785D02*
Y820D01*
X1171Y670D02*
Y701D01*
Y709D02*
Y768D01*
Y785D02*
Y820D01*
X1171Y670D02*
Y703D01*
Y709D02*
Y767D01*
Y785D02*
Y820D01*
X1172Y670D02*
Y703D01*
Y709D02*
Y767D01*
Y785D02*
Y820D01*
X1172Y670D02*
Y701D01*
Y708D02*
Y769D01*
Y786D02*
Y820D01*
X1172Y670D02*
Y701D01*
Y708D02*
Y769D01*
Y786D02*
Y820D01*
X1173Y670D02*
Y701D01*
Y709D02*
Y768D01*
Y785D02*
Y820D01*
X1173Y670D02*
Y701D01*
Y709D02*
Y768D01*
Y785D02*
Y820D01*
X1173Y670D02*
Y700D01*
Y708D02*
Y768D01*
Y786D02*
Y820D01*
X1174Y670D02*
Y702D01*
Y709D02*
Y769D01*
Y786D02*
Y820D01*
X1174Y670D02*
Y702D01*
Y709D02*
Y769D01*
Y786D02*
Y820D01*
X1174Y670D02*
Y700D01*
Y707D02*
Y769D01*
Y787D02*
Y820D01*
X1174Y670D02*
Y700D01*
Y707D02*
Y769D01*
Y787D02*
Y820D01*
X1175Y670D02*
Y700D01*
Y708D02*
Y769D01*
Y787D02*
Y820D01*
X1175Y670D02*
Y700D01*
Y708D02*
Y769D01*
Y787D02*
Y820D01*
X1175Y670D02*
Y699D01*
Y707D02*
Y769D01*
Y786D02*
Y820D01*
X1176Y670D02*
Y699D01*
Y707D02*
Y769D01*
Y786D02*
Y820D01*
X1176Y670D02*
Y699D01*
Y707D02*
Y769D01*
Y787D02*
Y820D01*
X1176Y670D02*
Y699D01*
Y707D02*
Y769D01*
Y787D02*
Y820D01*
X1177Y670D02*
Y700D01*
Y707D02*
Y769D01*
Y787D02*
Y820D01*
X1177Y670D02*
Y700D01*
Y707D02*
Y769D01*
Y787D02*
Y820D01*
X1177Y670D02*
Y699D01*
Y707D02*
Y769D01*
Y788D02*
Y820D01*
X1178Y670D02*
Y699D01*
Y707D02*
Y769D01*
Y788D02*
Y820D01*
X1178Y670D02*
Y700D01*
Y707D02*
Y771D01*
Y788D02*
Y820D01*
X1178Y670D02*
Y699D01*
Y707D02*
Y770D01*
Y789D02*
Y820D01*
X1178Y670D02*
Y699D01*
Y707D02*
Y770D01*
Y789D02*
Y820D01*
X1179Y670D02*
Y699D01*
Y706D02*
Y771D01*
Y789D02*
Y820D01*
X1179Y670D02*
Y699D01*
Y706D02*
Y771D01*
Y789D02*
Y820D01*
X1179Y670D02*
Y698D01*
Y706D02*
Y772D01*
Y789D02*
Y820D01*
X1180Y670D02*
Y698D01*
Y706D02*
Y772D01*
Y789D02*
Y820D01*
X1180Y670D02*
Y698D01*
Y707D02*
Y771D01*
Y787D02*
Y820D01*
X1180Y670D02*
Y698D01*
Y707D02*
Y771D01*
Y787D02*
Y820D01*
X1181Y670D02*
Y698D01*
Y705D02*
Y771D01*
Y789D02*
Y820D01*
X1181Y670D02*
Y698D01*
Y705D02*
Y771D01*
Y789D02*
Y820D01*
X1181Y670D02*
Y697D01*
Y705D02*
Y772D01*
Y790D02*
Y820D01*
X1181Y670D02*
Y697D01*
Y705D02*
Y772D01*
Y790D02*
Y820D01*
X1182Y670D02*
Y698D01*
Y704D02*
Y771D01*
Y790D02*
Y820D01*
X1182Y670D02*
Y698D01*
Y705D02*
Y772D01*
Y790D02*
Y820D01*
X1182Y670D02*
Y698D01*
Y705D02*
Y772D01*
Y790D02*
Y820D01*
X1183Y670D02*
Y696D01*
Y705D02*
Y772D01*
Y791D02*
Y820D01*
X1183Y670D02*
Y696D01*
Y705D02*
Y772D01*
Y791D02*
Y820D01*
X1183Y670D02*
Y697D01*
Y705D02*
Y772D01*
Y791D02*
Y820D01*
X1184Y670D02*
Y697D01*
Y705D02*
Y772D01*
Y791D02*
Y820D01*
X1184Y670D02*
Y696D01*
Y704D02*
Y772D01*
Y790D02*
Y820D01*
X1184Y670D02*
Y696D01*
Y704D02*
Y772D01*
Y790D02*
Y820D01*
X1184Y670D02*
Y695D01*
Y704D02*
Y773D01*
Y791D02*
Y820D01*
X1185Y670D02*
Y695D01*
Y704D02*
Y773D01*
Y791D02*
Y820D01*
X1185Y670D02*
Y696D01*
Y705D02*
Y772D01*
Y790D02*
Y820D01*
X1185Y670D02*
Y696D01*
Y705D02*
Y772D01*
Y790D02*
Y820D01*
X1186Y670D02*
Y695D01*
Y704D02*
Y774D01*
Y791D02*
Y820D01*
X1186Y670D02*
Y695D01*
Y704D02*
Y774D01*
Y791D02*
Y820D01*
X1186Y670D02*
Y695D01*
Y705D02*
Y772D01*
Y792D02*
Y820D01*
X1186Y670D02*
Y694D01*
Y704D02*
Y773D01*
Y793D02*
Y820D01*
X1187Y670D02*
Y694D01*
Y704D02*
Y773D01*
Y793D02*
Y820D01*
X1187Y670D02*
Y694D01*
Y703D02*
Y772D01*
Y792D02*
Y820D01*
X1187Y670D02*
Y694D01*
Y703D02*
Y772D01*
Y792D02*
Y820D01*
X1188Y670D02*
Y694D01*
Y704D02*
Y772D01*
Y794D02*
Y820D01*
X1188Y670D02*
Y694D01*
Y704D02*
Y772D01*
Y794D02*
Y820D01*
X1188Y670D02*
Y693D01*
Y705D02*
Y772D01*
Y794D02*
Y820D01*
X1189Y670D02*
Y693D01*
Y705D02*
Y772D01*
Y794D02*
Y820D01*
X1189Y670D02*
Y694D01*
Y704D02*
Y772D01*
Y794D02*
Y820D01*
X1189Y670D02*
Y694D01*
Y704D02*
Y772D01*
Y794D02*
Y820D01*
X1189Y670D02*
Y692D01*
Y704D02*
Y772D01*
Y794D02*
Y820D01*
X1190Y670D02*
Y692D01*
Y704D02*
Y772D01*
Y794D02*
Y820D01*
X1190Y670D02*
Y692D01*
Y705D02*
Y773D01*
Y795D02*
Y820D01*
X1190Y670D02*
Y692D01*
Y705D02*
Y773D01*
Y795D02*
Y820D01*
X1191Y670D02*
Y691D01*
Y705D02*
Y772D01*
Y795D02*
Y820D01*
X1191Y670D02*
Y691D01*
Y705D02*
Y771D01*
Y796D02*
Y820D01*
X1191Y670D02*
Y691D01*
Y705D02*
Y771D01*
Y796D02*
Y820D01*
X1192Y670D02*
Y691D01*
Y706D02*
Y772D01*
Y798D02*
Y820D01*
X1192Y670D02*
Y691D01*
Y706D02*
Y772D01*
Y798D02*
Y820D01*
X1192Y670D02*
Y689D01*
Y707D02*
Y771D01*
Y798D02*
Y820D01*
X1192Y670D02*
Y689D01*
Y707D02*
Y771D01*
Y798D02*
Y820D01*
X1193Y670D02*
Y689D01*
Y707D02*
Y769D01*
Y799D02*
Y820D01*
X1193Y670D02*
Y689D01*
Y707D02*
Y769D01*
Y799D02*
Y820D01*
X1193Y670D02*
Y687D01*
Y708D02*
Y769D01*
Y799D02*
Y820D01*
X1194Y670D02*
Y687D01*
Y708D02*
Y769D01*
Y799D02*
Y820D01*
X1194Y670D02*
Y686D01*
Y711D02*
Y767D01*
Y800D02*
Y820D01*
X1194Y670D02*
Y686D01*
Y711D02*
Y767D01*
Y800D02*
Y820D01*
X1195Y670D02*
Y683D01*
Y713D02*
Y766D01*
Y804D02*
Y820D01*
X1195Y670D02*
Y683D01*
Y713D02*
Y766D01*
Y804D02*
Y820D01*
X1195Y670D02*
Y681D01*
Y718D02*
Y760D01*
Y805D02*
Y806D01*
Y807D02*
Y820D01*
X1196Y670D02*
Y682D01*
Y717D02*
Y760D01*
Y805D02*
Y806D01*
Y807D02*
Y820D01*
X1196Y670D02*
Y682D01*
Y717D02*
Y760D01*
Y805D02*
Y806D01*
Y807D02*
Y820D01*
X1196Y670D02*
Y681D01*
Y718D02*
Y760D01*
Y808D02*
Y820D01*
X1196Y670D02*
Y681D01*
Y718D02*
Y760D01*
Y808D02*
Y820D01*
X1197Y670D02*
Y681D01*
Y718D02*
Y760D01*
Y806D02*
Y820D01*
X1197Y670D02*
Y681D01*
Y718D02*
Y760D01*
Y806D02*
Y820D01*
X1197Y670D02*
Y681D01*
Y683D02*
Y716D01*
Y718D02*
Y806D01*
Y807D02*
Y820D01*
X1198Y670D02*
Y681D01*
Y683D02*
Y716D01*
Y718D02*
Y806D01*
Y807D02*
Y820D01*
X1198Y670D02*
Y820D01*
X1198Y670D02*
Y820D01*
X1199Y670D02*
Y820D01*
X1199Y670D02*
Y820D01*
X1199Y670D02*
Y820D01*
X1199Y670D02*
Y820D01*
X1200Y670D02*
Y820D01*
X1200Y670D02*
Y820D01*
X1200Y670D02*
Y820D01*
X1201Y670D02*
Y820D01*
X1201Y670D02*
Y820D01*
X1201Y670D02*
Y820D01*
X1202Y670D02*
Y820D01*
X1202Y670D02*
Y820D01*
X1202Y670D02*
Y820D01*
X1202Y670D02*
Y820D01*
X1203Y670D02*
Y820D01*
X1203Y670D02*
Y820D01*
X1203Y670D02*
Y820D01*
X1204Y670D02*
Y820D01*
X1204Y670D02*
Y820D01*
X1204Y670D02*
Y820D01*
X1204Y670D02*
Y820D01*
X1205Y670D02*
Y820D01*
X1205Y670D02*
Y820D01*
X1205Y670D02*
Y820D01*
X1206Y670D02*
Y820D01*
X1206Y670D02*
Y820D01*
X1206Y670D02*
Y820D01*
X1207Y670D02*
Y820D01*
X1207Y670D02*
Y820D01*
X1207Y670D02*
Y820D01*
X1207Y670D02*
Y820D01*
X1208Y670D02*
Y820D01*
X1208Y670D02*
Y820D01*
X1208Y670D02*
Y820D01*
X1209Y670D02*
Y820D01*
X1209Y670D02*
Y820D01*
X1209Y670D02*
Y820D01*
X1210Y670D02*
Y820D01*
X1210Y670D02*
Y820D01*
X1210Y670D02*
Y820D01*
X1211Y670D02*
Y820D01*
X1211Y670D02*
Y820D01*
X1211Y670D02*
Y820D01*
X1211Y670D02*
Y820D01*
X1212Y670D02*
Y820D01*
X1212Y670D02*
Y820D01*
X1212Y670D02*
Y820D01*
X1213Y670D02*
Y820D01*
X1213Y670D02*
Y820D01*
X1213Y670D02*
Y820D01*
X1214Y670D02*
Y820D01*
X1214Y670D02*
Y820D01*
X1214Y670D02*
Y820D01*
X1214Y670D02*
Y820D01*
D22*
X445Y778D02*
Y811D01*
Y772D02*
Y765D01*
M02*
