%FSLAX23Y23*%
%MOIN*%
G70*
G01*
G75*
G04 Layer_Physical_Order=2*
G04 Layer_Color=16711680*
%ADD10R,0.118X0.059*%
%ADD11R,0.118X0.039*%
%ADD12R,0.059X0.059*%
%ADD13R,0.031X0.035*%
%ADD14C,0.010*%
%ADD15R,0.059X0.059*%
%ADD16C,0.059*%
%ADD17C,0.050*%
%ADD18C,0.039*%
%ADD19C,0.236*%
G36*
X1310Y935D02*
X1310Y935D01*
Y-75D01*
X-50D01*
X-50Y-75D01*
X-55Y-73D01*
X-45Y940D01*
X1308D01*
X1310Y935D01*
D02*
G37*
%LPC*%
G36*
X1280Y901D02*
X0D01*
X-11Y896D01*
X-16Y885D01*
X-15Y882D01*
X-16Y880D01*
Y0D01*
X-11Y-11D01*
X0Y-16D01*
X1280D01*
X1291Y-11D01*
X1296Y0D01*
X1296Y-0D01*
X1296Y0D01*
Y885D01*
X1291Y896D01*
X1280Y901D01*
D02*
G37*
%LPD*%
G36*
X1264Y16D02*
X16D01*
Y869D01*
X1264D01*
Y16D01*
D02*
G37*
%LPC*%
G36*
X801Y335D02*
X770D01*
Y304D01*
X792Y313D01*
X801Y335D01*
D02*
G37*
G36*
X811Y620D02*
X739D01*
X748Y598D01*
X759Y594D01*
Y375D01*
X738Y367D01*
X729Y345D01*
X801D01*
X792Y367D01*
X791Y367D01*
Y594D01*
X802Y598D01*
X811Y620D01*
D02*
G37*
G36*
X165Y296D02*
X115Y286D01*
X73Y257D01*
X44Y215D01*
X34Y165D01*
X44Y115D01*
X73Y73D01*
X115Y44D01*
X165Y34D01*
X215Y44D01*
X257Y73D01*
X286Y115D01*
X296Y165D01*
X286Y215D01*
X257Y257D01*
X215Y286D01*
X165Y296D01*
D02*
G37*
G36*
X760Y335D02*
X729D01*
X738Y313D01*
X760Y304D01*
Y335D01*
D02*
G37*
G36*
X320Y468D02*
X290Y455D01*
X277Y425D01*
X290Y395D01*
X320Y382D01*
X350Y395D01*
X363Y425D01*
X350Y455D01*
X320Y468D01*
D02*
G37*
G36*
X165Y861D02*
X115Y851D01*
X73Y822D01*
X44Y780D01*
X34Y730D01*
X44Y680D01*
X73Y638D01*
X115Y609D01*
X165Y599D01*
X215Y609D01*
X257Y638D01*
X286Y680D01*
X296Y730D01*
X286Y780D01*
X257Y822D01*
X215Y851D01*
X165Y861D01*
D02*
G37*
G36*
X770Y661D02*
X748Y652D01*
X739Y630D01*
X770D01*
Y661D01*
D02*
G37*
G36*
X780D02*
Y630D01*
X811D01*
X802Y652D01*
X780Y661D01*
D02*
G37*
G36*
X360Y565D02*
X325D01*
Y530D01*
X360D01*
Y565D01*
D02*
G37*
G36*
X315Y520D02*
X280D01*
Y485D01*
X315D01*
Y520D01*
D02*
G37*
G36*
X360D02*
X325D01*
Y485D01*
X360D01*
Y520D01*
D02*
G37*
G36*
X315Y565D02*
X280D01*
Y530D01*
X315D01*
Y565D01*
D02*
G37*
%LPD*%
D14*
X765Y340D02*
X775Y350D01*
Y625D01*
D15*
X320Y525D02*
D03*
D16*
Y425D02*
D03*
D17*
X775Y625D02*
D03*
X765Y340D02*
D03*
D18*
X102Y793D02*
D03*
X228D02*
D03*
X165Y819D02*
D03*
X76Y730D02*
D03*
X102Y667D02*
D03*
X165Y641D02*
D03*
X228Y667D02*
D03*
X254Y730D02*
D03*
Y165D02*
D03*
X228Y102D02*
D03*
X165Y76D02*
D03*
X102Y102D02*
D03*
X76Y165D02*
D03*
X165Y254D02*
D03*
X228Y228D02*
D03*
X102D02*
D03*
D19*
X165Y730D02*
D03*
Y165D02*
D03*
M02*
