M48
;Layer_Color=9474304
;FILE_FORMAT=2:3
INCH,TZ
;TYPE=PLATED
T1F00S00C0.020
T2F00S00C0.028
T3F00S00C0.035
T4F00S00C0.118
%
T01
X102Y102
X165Y76
X228Y102
X254Y165
X76
X102Y228
X165Y254
X228Y228
Y667
X165Y641
X102Y667
X76Y730
X102Y793
X165Y819
X228Y793
X254Y730
T02
X765Y340
X775Y625
T03
X320Y425
Y525
T04
X165Y165
Y730
M30
