%FSLAX23Y23*%
%MOIN*%
G70*
G01*
G75*
G04 Layer_Physical_Order=1*
G04 Layer_Color=255*
%ADD10R,0.118X0.059*%
%ADD11R,0.118X0.039*%
%ADD12R,0.059X0.059*%
%ADD13R,0.031X0.035*%
%ADD14C,0.010*%
%ADD15R,0.059X0.059*%
%ADD16C,0.059*%
%ADD17C,0.050*%
%ADD18C,0.039*%
%ADD19C,0.236*%
G36*
X1310Y-70D02*
X1295Y-85D01*
X1275Y-65D01*
X-51D01*
X-55Y-61D01*
X-45Y930D01*
X-30Y945D01*
X1310D01*
Y-70D01*
D02*
G37*
%LPC*%
G36*
X1280Y901D02*
X0D01*
X-11Y896D01*
X-16Y885D01*
X-15Y882D01*
X-16Y880D01*
Y0D01*
X-11Y-11D01*
X0Y-16D01*
X1280D01*
X1291Y-11D01*
X1296Y0D01*
Y885D01*
X1291Y896D01*
X1280Y901D01*
D02*
G37*
%LPD*%
G36*
X1264Y635D02*
X1128D01*
Y556D01*
X1264D01*
Y304D01*
X1128D01*
Y225D01*
X1264D01*
Y16D01*
X16D01*
Y869D01*
X1264D01*
Y635D01*
D02*
G37*
%LPC*%
G36*
X760Y376D02*
X738Y367D01*
X729Y345D01*
X760D01*
Y376D01*
D02*
G37*
G36*
X770D02*
Y345D01*
X801D01*
X792Y367D01*
X770Y376D01*
D02*
G37*
G36*
X995Y381D02*
X931D01*
Y356D01*
X995D01*
Y381D01*
D02*
G37*
G36*
X165Y296D02*
X115Y286D01*
X73Y257D01*
X44Y215D01*
X34Y165D01*
X44Y115D01*
X73Y73D01*
X115Y44D01*
X165Y34D01*
X215Y44D01*
X257Y73D01*
X286Y115D01*
X296Y165D01*
X286Y215D01*
X257Y257D01*
X215Y286D01*
X165Y296D01*
D02*
G37*
G36*
X995Y346D02*
X931D01*
Y322D01*
X941D01*
X941Y320D01*
X939Y316D01*
X798D01*
X795Y320D01*
X801Y335D01*
X729D01*
X731Y329D01*
X718Y316D01*
X688D01*
Y328D01*
X668D01*
Y300D01*
Y272D01*
X688D01*
Y284D01*
X949D01*
X960Y289D01*
X960Y289D01*
X960Y289D01*
X993Y322D01*
X995D01*
Y346D01*
D02*
G37*
G36*
X1069D02*
X1005D01*
Y322D01*
X1069D01*
Y346D01*
D02*
G37*
G36*
X811Y620D02*
X780D01*
Y589D01*
X802Y598D01*
X811Y620D01*
D02*
G37*
G36*
X730Y686D02*
X665D01*
X654Y681D01*
X653Y680D01*
X651Y679D01*
X646Y667D01*
Y633D01*
X637D01*
Y621D01*
X400D01*
X389Y616D01*
X337Y565D01*
X325D01*
Y530D01*
X360D01*
Y542D01*
X407Y589D01*
X637D01*
Y577D01*
X657D01*
Y605D01*
X667D01*
Y577D01*
X688D01*
Y577D01*
X688D01*
X688Y577D01*
X692D01*
Y577D01*
X699D01*
Y483D01*
X692D01*
D01*
D01*
X692Y483D01*
X688D01*
Y483D01*
X637D01*
Y465D01*
X613Y441D01*
X356D01*
X350Y455D01*
X320Y468D01*
X290Y455D01*
X277Y425D01*
X290Y395D01*
X320Y382D01*
X350Y395D01*
X356Y409D01*
X524D01*
Y170D01*
X529Y159D01*
X548Y139D01*
X548Y139D01*
X548D01*
X548Y139D01*
X548D01*
Y139D01*
D01*
D01*
D01*
D01*
X548D01*
Y139D01*
D01*
X560Y134D01*
X662D01*
X673Y139D01*
X713Y179D01*
X724D01*
Y155D01*
X803D01*
Y235D01*
X724D01*
Y211D01*
X706D01*
X695Y206D01*
X670Y182D01*
X666Y184D01*
Y235D01*
X624D01*
Y272D01*
X633D01*
Y272D01*
X633D01*
X633Y272D01*
X637D01*
Y272D01*
X658D01*
Y300D01*
Y328D01*
X637D01*
D01*
D01*
X637Y328D01*
X633D01*
Y328D01*
X582D01*
Y272D01*
X591D01*
Y235D01*
X587D01*
Y167D01*
X566D01*
X556Y177D01*
Y409D01*
X620D01*
X631Y414D01*
X645Y427D01*
X688D01*
Y427D01*
X688D01*
X688Y427D01*
X692D01*
Y427D01*
X743D01*
Y429D01*
X805D01*
X816Y434D01*
X816Y434D01*
X816Y434D01*
X875Y493D01*
X931D01*
Y479D01*
X1069D01*
Y538D01*
X931D01*
Y525D01*
X869D01*
X857Y520D01*
X798Y461D01*
X743D01*
Y483D01*
X731D01*
Y577D01*
X743D01*
Y597D01*
X748Y598D01*
X748Y598D01*
X770Y589D01*
Y625D01*
Y661D01*
X764Y659D01*
X741Y681D01*
X730Y686D01*
D02*
G37*
G36*
X780Y661D02*
Y630D01*
X811D01*
X802Y652D01*
X780Y661D01*
D02*
G37*
G36*
X165Y861D02*
X115Y851D01*
X73Y822D01*
X44Y780D01*
X34Y730D01*
X44Y680D01*
X73Y638D01*
X115Y609D01*
X165Y599D01*
X215Y609D01*
X257Y638D01*
X286Y680D01*
X296Y730D01*
X286Y780D01*
X257Y822D01*
X215Y851D01*
X165Y861D01*
D02*
G37*
G36*
X315Y565D02*
X280D01*
Y530D01*
X315D01*
Y565D01*
D02*
G37*
G36*
X1069Y460D02*
X931D01*
Y400D01*
X1069D01*
Y460D01*
D02*
G37*
G36*
Y381D02*
X1005D01*
Y356D01*
X1069D01*
Y381D01*
D02*
G37*
G36*
X360Y520D02*
X325D01*
Y485D01*
X360D01*
Y520D01*
D02*
G37*
G36*
X315D02*
X280D01*
Y485D01*
X315D01*
Y520D01*
D02*
G37*
%LPD*%
D10*
X1197Y265D02*
D03*
Y595D02*
D03*
D11*
X1000Y509D02*
D03*
Y351D02*
D03*
Y430D02*
D03*
Y509D02*
D03*
D12*
X764Y195D02*
D03*
X626D02*
D03*
D13*
X718Y455D02*
D03*
X662D02*
D03*
X662Y605D02*
D03*
X718D02*
D03*
X663Y300D02*
D03*
X607D02*
D03*
D14*
X725Y300D02*
X949D01*
X730Y670D02*
X775Y625D01*
X949Y300D02*
X1000Y351D01*
X869Y509D02*
X1000D01*
X805Y445D02*
X869Y509D01*
X620Y425D02*
X655Y460D01*
X320Y525D02*
X400Y605D01*
X607Y204D02*
Y300D01*
X320Y425D02*
X540D01*
X620D01*
X706Y195D02*
X764D01*
X662Y150D02*
X706Y195D01*
X560Y150D02*
X662D01*
X540Y170D02*
X560Y150D01*
X540Y170D02*
Y425D01*
X715Y445D02*
X805D01*
X715D02*
Y605D01*
X665Y670D02*
X730D01*
X400Y605D02*
X662D01*
Y667D01*
X663Y300D02*
X725D01*
X765Y340D01*
D15*
X320Y525D02*
D03*
D16*
Y425D02*
D03*
D17*
X775Y625D02*
D03*
X765Y340D02*
D03*
D18*
X102Y793D02*
D03*
X228D02*
D03*
X165Y819D02*
D03*
X76Y730D02*
D03*
X102Y667D02*
D03*
X165Y641D02*
D03*
X228Y667D02*
D03*
X254Y730D02*
D03*
Y165D02*
D03*
X228Y102D02*
D03*
X165Y76D02*
D03*
X102Y102D02*
D03*
X76Y165D02*
D03*
X165Y254D02*
D03*
X228Y228D02*
D03*
X102D02*
D03*
D19*
X165Y730D02*
D03*
Y165D02*
D03*
M02*
