%FSLAX23Y23*%
%MOIN*%
G70*
G01*
G75*
G04 Layer_Color=8388736*
%ADD10R,0.118X0.059*%
%ADD11R,0.118X0.039*%
%ADD12R,0.059X0.059*%
%ADD13R,0.031X0.035*%
%ADD14C,0.010*%
%ADD15R,0.059X0.059*%
%ADD16C,0.059*%
%ADD17C,0.050*%
%ADD18C,0.039*%
%ADD19C,0.236*%
%ADD20C,0.008*%
%ADD21C,0.000*%
%ADD22C,0.004*%
%ADD23C,0.059*%
%ADD24R,0.126X0.067*%
%ADD25R,0.126X0.047*%
%ADD26R,0.067X0.067*%
%ADD27R,0.039X0.043*%
%ADD28R,0.067X0.067*%
%ADD29C,0.067*%
%ADD30C,0.058*%
D14*
X340Y50D02*
Y76D01*
X353Y89D01*
X366Y76D01*
Y50D01*
Y70D01*
X340D01*
X379Y50D02*
Y76D01*
X399D01*
X406Y70D01*
Y50D01*
X425Y76D02*
X438D01*
X445Y70D01*
Y50D01*
X425D01*
X419Y57D01*
X425Y63D01*
X445D01*
X458Y50D02*
X471D01*
X465D01*
Y89D01*
X458D01*
X497Y50D02*
X511D01*
X517Y57D01*
Y70D01*
X511Y76D01*
X497D01*
X491Y70D01*
Y57D01*
X497Y50D01*
X543Y37D02*
X550D01*
X556Y43D01*
Y76D01*
X537D01*
X530Y70D01*
Y57D01*
X537Y50D01*
X556D01*
X609Y89D02*
Y63D01*
X622Y50D01*
X635Y63D01*
Y89D01*
X655Y50D02*
X668D01*
X675Y57D01*
Y70D01*
X668Y76D01*
X655D01*
X648Y70D01*
Y57D01*
X655Y50D01*
X688D02*
X701D01*
X694D01*
Y89D01*
X688D01*
X727Y83D02*
Y76D01*
X720D01*
X734D01*
X727D01*
Y57D01*
X734Y50D01*
X760Y76D02*
X773D01*
X779Y70D01*
Y50D01*
X760D01*
X753Y57D01*
X760Y63D01*
X779D01*
X806Y37D02*
X812D01*
X819Y43D01*
Y76D01*
X799D01*
X793Y70D01*
Y57D01*
X799Y50D01*
X819D01*
X852D02*
X839D01*
X832Y57D01*
Y70D01*
X839Y76D01*
X852D01*
X858Y70D01*
Y63D01*
X832D01*
X911Y89D02*
Y50D01*
X930D01*
X937Y57D01*
Y83D01*
X930Y89D01*
X911D01*
X950Y50D02*
X963D01*
X957D01*
Y76D01*
X950D01*
X983D02*
X996Y50D01*
X1009Y76D01*
X1022Y50D02*
X1035D01*
X1029D01*
Y76D01*
X1022D01*
X1081Y89D02*
Y50D01*
X1062D01*
X1055Y57D01*
Y70D01*
X1062Y76D01*
X1081D01*
X1114Y50D02*
X1101D01*
X1094Y57D01*
Y70D01*
X1101Y76D01*
X1114D01*
X1121Y70D01*
Y63D01*
X1094D01*
X1134Y76D02*
Y50D01*
Y63D01*
X1140Y70D01*
X1147Y76D01*
X1153D01*
D18*
X102Y793D02*
D03*
X228D02*
D03*
X165Y819D02*
D03*
X76Y730D02*
D03*
X102Y667D02*
D03*
X165Y641D02*
D03*
X228Y667D02*
D03*
X254Y730D02*
D03*
Y165D02*
D03*
X228Y102D02*
D03*
X165Y76D02*
D03*
X102Y102D02*
D03*
X76Y165D02*
D03*
X165Y254D02*
D03*
X228Y228D02*
D03*
X102D02*
D03*
D19*
X165Y730D02*
D03*
Y165D02*
D03*
D23*
X254Y730D02*
G03*
X254Y730I-89J0D01*
G01*
Y165D02*
G03*
X254Y165I-89J0D01*
G01*
D24*
X1197Y265D02*
D03*
Y595D02*
D03*
D25*
X1000Y509D02*
D03*
Y351D02*
D03*
Y430D02*
D03*
Y509D02*
D03*
D26*
X764Y195D02*
D03*
X626D02*
D03*
D27*
X718Y455D02*
D03*
X662D02*
D03*
X662Y605D02*
D03*
X718D02*
D03*
X663Y300D02*
D03*
X607D02*
D03*
D28*
X320Y525D02*
D03*
D29*
Y425D02*
D03*
D30*
X775Y625D02*
D03*
X765Y340D02*
D03*
M02*
