%FSLAX23Y23*%
%MOIN*%
G70*
G01*
G75*
%ADD10C,0.004*%
%ADD11C,0.005*%
%ADD12C,0.007*%
D10*
X695Y187D02*
Y203D01*
X687Y195D02*
X703D01*
X656Y436D02*
X724D01*
X656Y474D02*
X724D01*
Y436D02*
Y474D01*
X656Y436D02*
Y474D01*
X656Y624D02*
X724D01*
X656Y586D02*
X724D01*
X656D02*
Y624D01*
X724Y586D02*
Y624D01*
X601Y281D02*
X669D01*
X601Y319D02*
X669D01*
Y281D02*
Y319D01*
X601Y281D02*
Y319D01*
X690Y436D02*
Y474D01*
X671Y455D02*
X709D01*
X643Y433D02*
X737D01*
X643Y477D02*
X737D01*
Y433D02*
Y477D01*
X643Y433D02*
Y477D01*
X690Y586D02*
Y624D01*
X671Y605D02*
X709D01*
X643Y627D02*
X737D01*
X643Y583D02*
X737D01*
X643D02*
Y627D01*
X737Y583D02*
Y627D01*
X635Y281D02*
Y319D01*
X616Y300D02*
X654D01*
X588Y278D02*
X682D01*
X588Y322D02*
X682D01*
Y278D02*
Y322D01*
X588Y278D02*
Y322D01*
D11*
X302Y525D02*
X338D01*
X320Y507D02*
Y543D01*
X302Y425D02*
X338D01*
X320Y407D02*
Y443D01*
X761Y625D02*
X789D01*
X775Y611D02*
Y639D01*
X751Y340D02*
X779D01*
X765Y326D02*
Y354D01*
X93Y793D02*
X112D01*
X102Y783D02*
Y802D01*
X218Y793D02*
X237D01*
X228Y783D02*
Y802D01*
X155Y819D02*
X175D01*
X165Y809D02*
Y828D01*
X67Y730D02*
X86D01*
X76Y720D02*
Y740D01*
X93Y667D02*
X112D01*
X102Y658D02*
Y677D01*
X155Y641D02*
X175D01*
X165Y632D02*
Y651D01*
X218Y667D02*
X237D01*
X228Y658D02*
Y677D01*
X244Y730D02*
X263D01*
X254Y720D02*
Y740D01*
X106Y730D02*
X224D01*
X165Y671D02*
Y789D01*
X106Y165D02*
X224D01*
X165Y106D02*
Y224D01*
X244Y165D02*
X263D01*
X254Y155D02*
Y175D01*
X218Y102D02*
X237D01*
X228Y93D02*
Y112D01*
X155Y76D02*
X175D01*
X165Y67D02*
Y86D01*
X93Y102D02*
X112D01*
X102Y93D02*
Y112D01*
X67Y165D02*
X86D01*
X76Y155D02*
Y175D01*
X155Y254D02*
X175D01*
X165Y244D02*
Y263D01*
X218Y228D02*
X237D01*
X228Y218D02*
Y237D01*
X93Y228D02*
X112D01*
X102Y218D02*
Y237D01*
M02*
